<svg version="1.1" id="Layer_1" xmlns="http://www.w3.org/2000/svg" xmlns:xlink="http://www.w3.org/1999/xlink" x="0px" y="0px"
	 width="100%" viewBox="0 0 542 61" enable-background="new 0 0 542 61" xml:space="preserve">
<path fill="#000000" opacity="1.000000" stroke="none" 
	d="
M244.259277,61.722485 
	C164.985077,62.000000 85.969986,61.935413 6.955643,62.147686 
	C1.777826,62.161594 -0.087020,61.041168 0.981636,55.974377 
	C1.115997,55.337330 1.000000,54.647480 1.000000,53.491051 
	C2.309408,50.411942 4.890490,49.679821 7.518067,48.454735 
	C9.074647,46.783508 9.000133,44.993919 9.099196,42.879337 
	C9.340320,42.337784 9.474286,42.137825 9.876720,41.694111 
	C12.761629,39.981201 15.640325,40.647408 18.406927,40.473591 
	C23.093149,40.179176 27.180656,38.872597 29.747137,34.120602 
	C30.188057,32.943356 30.447725,32.075871 30.617466,30.843533 
	C30.764088,29.636196 30.813248,28.756830 30.669456,27.540415 
	C30.487204,26.296904 30.345346,25.388721 29.908751,24.179096 
	C28.481455,20.576025 25.803314,19.274954 22.583885,18.532387 
	C17.716127,17.409630 12.788244,17.513016 7.856339,17.479549 
	C5.564831,17.464001 3.193461,17.655077 1.270086,15.269461 
	C1.000000,10.341228 -0.814789,3.895144 1.514326,1.530224 
	C3.808237,-0.798952 10.301754,1.001100 14.952631,1.001014 
	C91.655983,0.999588 168.359329,1.000000 245.531342,1.000000 
	C247.734024,2.200967 249.815170,2.902832 251.124496,4.714897 
	C252.877182,7.140511 253.956421,9.493007 251.657272,12.278607 
	C249.672287,14.683575 249.591629,17.488594 250.969727,20.205421 
	C252.758621,23.732082 251.808533,25.854183 247.639816,26.881351 
	C243.960663,27.871387 240.564316,27.223909 237.243652,27.574905 
	C242.168839,28.436144 247.009735,27.841894 252.135620,26.870522 
	C254.248627,25.854471 254.595886,24.072836 255.366699,22.131123 
	C256.027100,21.574942 256.451355,21.303921 257.239929,20.874699 
	C260.899048,20.143906 263.920288,21.586773 267.436340,22.182592 
	C270.360413,22.475153 271.112213,24.918617 273.032684,26.422901 
	C275.368439,27.806524 277.627625,27.597046 279.829926,27.509476 
	C277.893646,27.255857 276.544556,26.283573 275.503662,24.290766 
	C273.899292,21.939507 275.718933,20.784729 276.624603,19.332800 
	C278.399750,16.486996 280.815155,13.934529 281.176575,10.372176 
	C279.045380,9.331466 278.334198,12.245230 276.197235,11.502583 
	C272.003754,10.588196 269.633545,12.983678 267.254395,15.312241 
	C263.528870,18.958561 262.616852,18.907099 259.709717,14.567624 
	C257.949280,11.939820 256.303833,9.232257 254.689987,6.512643 
	C253.778458,4.976546 252.628799,3.305648 254.722046,1.284452 
	C349.531799,1.000000 444.063629,1.030833 538.595215,0.891787 
	C542.541077,0.885983 543.331726,1.981369 543.082092,5.588253 
	C542.749573,10.391685 543.000000,15.235467 543.000000,20.530956 
	C542.830750,21.159231 542.661560,21.318460 542.177002,21.622803 
	C540.371155,21.689613 539.625183,20.573370 538.887573,19.532648 
	C536.446655,16.088528 533.166382,14.359869 528.596130,14.491104 
	C526.935852,14.493363 525.609436,14.490247 523.945190,14.491951 
	C519.534241,14.509329 515.805115,15.166718 514.012817,19.924442 
	C513.441528,22.256294 513.385803,24.272352 513.827942,26.631374 
	C515.243774,31.415695 519.153625,32.177624 522.869263,33.080708 
	C525.287231,33.668392 527.838379,33.789040 530.087219,34.952293 
	C534.104187,37.030087 534.293762,40.929195 530.584717,43.574417 
	C527.180176,46.002499 523.903259,45.922440 520.494812,43.451481 
	C518.754333,42.189693 516.258606,39.608341 514.682312,42.557484 
	C513.308167,45.128479 516.550476,46.422451 518.589783,47.307014 
	C525.386353,50.255070 531.882629,49.610111 537.922607,45.184643 
	C538.971436,44.416126 539.691895,43.139656 541.536011,43.076920 
	C542.086609,43.246407 542.283386,43.379532 542.740051,43.756325 
	C543.000000,49.325020 542.920166,54.651943 543.047363,59.973923 
	C543.086914,61.628426 542.851624,62.388035 541.025940,62.026665 
	C540.225220,61.868187 539.367126,62.000000 538.535095,62.000000 
	C452.669159,62.000000 366.803253,62.000000 280.468658,62.000000 
	C279.471100,61.466648 278.850952,61.059593 277.959778,60.416161 
	C275.751343,58.500111 274.160767,56.666981 274.492340,53.490822 
	C274.791656,51.934090 275.735046,51.008682 275.961121,49.422131 
	C277.668640,47.023930 277.150024,45.035004 275.912872,43.062344 
	C275.133850,41.820206 273.873840,40.793232 274.252319,38.708576 
	C274.563843,38.107197 274.729248,37.887165 275.207581,37.408348 
	C275.746155,37.016014 275.971741,36.882477 276.537506,36.575195 
	C280.760223,34.890266 284.841248,35.971470 288.785461,35.433514 
	C283.827667,34.556293 278.944336,35.164185 273.769287,36.109386 
	C272.691040,36.652550 271.967621,37.133236 271.091675,37.972816 
	C270.139923,38.768482 269.436981,39.341911 268.423248,40.082157 
	C267.920929,40.372658 267.709747,40.471722 267.187439,40.737556 
	C265.097412,41.910210 263.191040,41.313679 260.996216,41.271423 
	C260.446198,41.109325 260.234619,41.021149 259.706116,40.811031 
	C259.180908,40.608974 258.972595,40.528851 258.467651,40.301498 
	C256.208313,39.211647 255.320755,36.962936 252.971619,36.020134 
	C250.897171,35.356796 249.073456,35.403400 247.238571,35.504185 
	C248.149521,35.744877 249.090973,35.876930 250.184738,36.600685 
	C252.349533,38.374912 252.205307,40.180443 251.137131,42.145489 
	C250.027878,44.186050 249.055206,46.374741 247.605530,48.132687 
	C244.309830,52.129227 245.174911,56.930527 244.259277,61.722485 
z"/>
<path fill="#B52132" opacity="1.000000" stroke="none" 
	d="
M542.236877,43.862026 
	C538.045654,51.368565 530.948181,52.317871 524.135681,51.631981 
	C517.913330,51.005505 511.486908,49.135033 509.560425,41.327518 
	C508.942017,38.821426 509.068787,37.946056 511.696259,37.997963 
	C515.509766,38.073299 519.642700,37.111435 522.216187,41.160114 
	C523.000977,42.394688 524.218323,42.512596 525.392822,42.786900 
	C528.157837,43.432678 530.082642,41.536972 530.716187,39.609951 
	C531.518860,37.168827 528.695496,37.033875 527.104065,36.630703 
	C522.410706,35.441662 517.461914,35.306564 513.299438,32.181431 
	C511.881317,31.116724 510.998718,29.946268 510.189240,28.164425 
	C510.926880,25.088587 510.243652,22.298845 510.768341,19.196968 
	C512.764648,13.209188 517.459595,12.096041 522.829712,11.356955 
	C524.931152,11.719278 526.681641,11.450012 528.714783,11.292444 
	C534.707275,12.206681 540.004211,13.849752 542.029297,20.578884 
	C543.242859,24.172377 540.393860,24.350933 538.676514,25.289433 
	C536.640442,26.402111 534.481995,25.717567 531.967773,25.432426 
	C530.973450,25.157940 530.217896,25.420382 529.560547,24.782562 
	C529.515930,24.862701 529.668457,24.964201 530.115784,25.139675 
	C531.683960,25.525656 533.080933,25.344355 534.733521,25.991776 
	C538.888306,26.020340 541.026794,28.233522 542.731689,31.701124 
	C543.000000,32.444447 543.000000,32.888889 543.000000,33.666668 
	C542.269531,34.729893 542.534119,35.627464 542.790344,36.744144 
	C543.000000,37.750000 543.000000,38.500000 543.000000,39.625000 
	C542.090393,41.076466 542.690552,42.383354 542.236877,43.862026 
z"/>
<path fill="#3D3C71" opacity="1.000000" stroke="none" 
	d="
M33.209103,33.860336 
	C31.557695,39.012924 27.010342,42.715603 21.965649,42.958691 
	C18.989788,43.102089 16.001900,42.995861 12.564018,43.006092 
	C11.956182,43.141895 11.803749,43.273506 11.761019,43.686577 
	C11.909499,46.360767 11.948275,48.753494 11.909275,51.588570 
	C8.523914,53.013897 5.145215,52.306698 1.401211,52.226448 
	C1.000000,39.979103 1.000000,27.958210 1.000000,15.468657 
	C8.713306,15.255898 16.444273,14.458544 24.143875,15.922629 
	C28.590286,16.768118 31.747089,18.664026 33.026474,23.513405 
	C33.659733,24.616016 33.439266,25.529778 33.703266,26.663124 
	C33.897419,28.049114 33.938038,29.147055 33.918213,30.653576 
	C33.306038,31.828255 33.614227,32.756874 33.209103,33.860336 
z"/>
<path fill="#403F73" opacity="1.000000" stroke="none" 
	d="
M254.550018,1.000000 
	C256.710388,6.371052 260.673950,10.380115 263.761505,16.203436 
	C266.314117,10.495549 269.797333,7.364898 275.959106,9.699150 
	C276.774445,10.401912 277.636230,10.918615 277.443878,11.469638 
	C275.675110,16.536501 273.890350,21.632746 268.388367,24.339752 
	C264.981995,23.146036 261.342773,25.549591 258.365417,22.295067 
	C258.036407,22.090340 257.697021,22.015564 257.589783,22.063873 
	C257.507507,22.617012 257.500488,23.125282 257.820984,23.860046 
	C258.470551,26.460756 256.411560,27.778872 255.436356,29.846252 
	C246.341782,30.707943 237.529312,30.967329 228.481567,29.492962 
	C228.925049,27.819710 229.610458,26.556845 230.554901,25.121151 
	C235.883484,23.929438 241.013138,24.809938 246.527649,24.305206 
	C250.252777,23.785975 249.266891,22.047516 247.967056,20.541876 
	C245.315262,17.470242 245.344818,14.174614 248.182648,11.731875 
	C251.150421,9.177296 250.074066,7.298539 248.371323,4.988272 
	C247.586166,3.922970 246.919342,2.770461 246.099426,1.328751 
	C248.700012,1.000000 251.400024,1.000000 254.550018,1.000000 
z"/>
<path fill="#403F73" opacity="1.000000" stroke="none" 
	d="
M241.256973,38.240639 
	C240.270264,36.929516 239.639130,35.824894 238.982254,34.392090 
	C238.646103,32.017685 240.232147,32.548798 241.205261,32.529289 
	C245.487045,32.443432 249.771027,32.538677 254.484009,32.327538 
	C257.233154,33.609707 257.725952,36.198528 259.298645,38.931293 
	C259.899811,39.652630 260.063873,39.820301 260.452148,40.253822 
	C260.770233,40.728836 260.864105,40.937988 260.964874,41.485123 
	C260.931488,42.040821 260.891205,42.258541 260.722443,42.775417 
	C260.493256,43.262238 260.392487,43.449898 260.133087,43.908325 
	C259.870697,44.357140 259.766998,44.535187 259.511963,44.978527 
	C259.260529,45.419113 259.160461,45.594406 258.913025,46.032791 
	C258.664398,46.469418 258.563202,46.642948 258.308167,47.075661 
	C257.949463,47.685902 257.722992,48.022415 257.279449,48.584244 
	C255.968491,50.057476 255.035065,51.453556 253.540863,52.773582 
	C253.057907,53.343117 252.802139,53.688705 252.392807,54.329216 
	C251.070755,57.549637 249.223190,59.908901 246.239792,61.761219 
	C245.555557,62.000000 245.111099,62.000000 244.333328,62.000000 
	C239.828476,56.427513 241.859131,51.630539 245.426910,46.617142 
	C246.968964,44.450253 248.896561,42.228283 249.122162,39.104385 
	C246.538467,38.060078 244.047104,38.750122 241.256973,38.240639 
z"/>
<path fill="#000000" opacity="1.000000" stroke="none" 
	d="
M246.468658,62.000000 
	C246.789169,58.832443 248.314026,56.028809 250.531647,53.262146 
	C253.098160,53.607079 254.414871,51.776150 256.420288,50.713394 
	C258.758667,49.035755 259.989136,46.683033 262.587158,45.243744 
	C263.239685,45.065674 263.513489,45.037571 264.205322,45.021694 
	C265.179657,45.131435 265.683075,45.350121 266.417603,45.987061 
	C266.999573,46.724644 267.284607,47.175159 267.750366,47.963306 
	C268.061951,48.513065 268.180237,48.733166 268.466919,49.281998 
	C268.853943,50.041843 269.066010,50.476135 269.420593,51.233356 
	C270.668060,54.541603 273.275787,56.899498 273.099792,60.672806 
	C272.797729,61.160320 272.643799,61.333515 272.244934,61.753357 
	C263.645752,62.000000 255.291534,62.000000 246.468658,62.000000 
z"/>
<path fill="#000000" opacity="1.000000" stroke="none" 
	d="
M543.000000,31.555836 
	C539.616577,32.041904 538.215820,28.038431 534.499695,27.983208 
	C532.749207,27.087257 531.198486,27.699587 529.397583,27.315464 
	C527.843689,26.243902 526.166809,26.388931 525.030823,25.761755 
	C523.301758,24.807142 519.741699,23.578560 523.831665,20.460323 
	C525.298096,18.902113 526.867004,19.711666 528.638672,19.862711 
	C529.474670,20.709459 529.972717,21.256847 530.722290,21.933760 
	C534.428101,25.041103 538.553284,22.809200 542.649658,23.760767 
	C543.000000,26.370558 543.000000,28.741116 543.000000,31.555836 
z"/>
<path fill="#BA3245" opacity="1.000000" stroke="none" 
	d="
M543.000000,23.625000 
	C539.049683,23.387602 534.869263,25.263050 531.027466,22.480358 
	C534.563843,22.928226 538.166504,24.028946 541.819214,21.217697 
	C542.062622,20.936586 542.528503,21.010109 542.764282,21.005054 
	C543.000000,21.750000 543.000000,22.500000 543.000000,23.625000 
z"/>
<path fill="#48487C" opacity="1.000000" stroke="none" 
	d="
M1.000000,52.250000 
	C4.312495,52.006828 7.624989,52.013657 11.384491,52.025700 
	C8.678685,53.976601 5.198991,52.573971 1.448943,53.000343 
	C1.000000,53.000000 1.000000,52.500000 1.000000,52.250000 
z"/>
<path fill="#BA313F" opacity="1.000000" stroke="none" 
	d="
M272.444153,62.000000 
	C272.007263,61.820770 272.014526,61.641541 272.083496,61.200401 
	C273.624298,58.029396 275.909821,58.847954 278.613770,59.752171 
	C279.352844,60.370865 279.665894,60.868778 279.989441,61.683350 
	C277.629425,62.000000 275.258881,62.000000 272.444153,62.000000 
z"/>
<path fill="#B92E3E" opacity="1.000000" stroke="none" 
	d="
M542.257996,44.089523 
	C542.248535,42.992104 542.479492,41.823048 542.855225,40.326996 
	C543.000000,41.066669 543.000000,42.133339 543.000000,43.600006 
	C542.832886,44.005959 542.665710,44.011917 542.257996,44.089523 
z"/>
<path fill="#B92E3E" opacity="1.000000" stroke="none" 
	d="
M543.000000,36.625000 
	C542.931580,36.161812 542.863159,35.323624 542.897339,34.242718 
	C543.000000,34.750000 543.000000,35.500000 543.000000,36.625000 
z"/>
<path fill="#B52233" opacity="1.000000" stroke="none" 
	d="
M388.750671,26.307819 
	C391.815857,16.549799 396.753296,12.308524 405.549835,11.949255 
	C407.679596,11.055936 409.531891,11.727943 411.663025,11.312649 
	C418.664795,12.252985 424.912323,14.120249 428.209229,20.742012 
	C433.335052,31.037029 431.291504,46.461140 416.492310,50.048500 
	C412.080658,51.237911 407.983765,50.887985 403.477295,50.709053 
	C396.065369,48.508537 390.799377,44.399078 388.979919,36.450169 
	C387.986816,32.999260 388.700439,29.846613 388.750671,26.307819 
z"/>
<path fill="#3E3D72" opacity="1.000000" stroke="none" 
	d="
M113.085701,35.737823 
	C113.079483,36.502415 113.037819,36.938896 112.944832,37.700241 
	C112.792458,38.175407 112.691414,38.325718 112.714737,38.717567 
	C110.139725,47.457043 104.769020,52.766605 95.172211,53.606628 
	C93.104431,53.257328 91.363609,53.567562 89.349213,53.704033 
	C82.826797,52.969696 77.285789,50.650303 73.761200,45.189625 
	C67.716988,35.825253 69.856461,18.491478 85.709656,14.225306 
	C86.459465,14.399806 86.894379,14.494703 87.663101,14.292461 
	C88.443268,14.087900 88.921135,14.046287 89.759056,14.018164 
	C91.165237,13.989313 92.211586,13.996281 93.571899,14.025763 
	C94.368813,14.033432 94.851845,14.032176 95.693436,14.084151 
	C96.441719,14.394372 96.870819,14.495499 97.641510,14.314856 
	C104.344612,16.635103 110.615982,19.237041 112.037704,27.494852 
	C112.398117,28.351818 112.495743,28.917543 112.732422,29.730888 
	C112.925224,30.447441 112.962029,30.921955 112.988174,31.753693 
	C113.014839,33.210232 112.974426,34.311256 113.085701,35.737823 
z"/>
<path fill="#B52131" opacity="1.000000" stroke="none" 
	d="
M468.240356,30.723377 
	C466.658173,32.887577 466.540436,35.368633 464.164764,36.592567 
	C462.528534,37.435528 463.916809,38.993526 464.581116,39.887440 
	C466.337860,42.251396 468.393494,44.391434 470.194183,46.725487 
	C470.869232,47.600483 471.711884,48.888439 471.512177,49.769070 
	C471.211914,51.093140 469.568878,50.500393 468.486115,50.725739 
	C461.196930,52.242805 456.466492,48.560089 453.459961,42.623520 
	C451.902252,39.547749 450.050323,38.585697 446.570770,39.019161 
	C444.706787,42.287827 445.932007,45.751438 445.230682,49.463776 
	C442.305450,49.875710 439.599304,49.917446 436.445923,49.897846 
	C434.866882,38.240952 435.832703,26.615265 435.483887,15.009410 
	C435.408905,12.515704 436.913971,12.471926 438.711487,12.488794 
	C444.866821,12.546560 451.022888,12.442842 457.632019,12.742689 
	C461.841003,14.209970 466.180115,14.582390 467.878876,19.535904 
	C469.011627,23.294548 468.297211,26.812702 468.240356,30.723377 
z"/>
<path fill="#B52132" opacity="1.000000" stroke="none" 
	d="
M323.235931,19.903837 
	C320.554474,23.786612 321.053131,25.096861 325.187500,25.975290 
	C328.201355,26.615643 331.284943,27.064646 334.195068,28.028614 
	C340.587280,30.145973 342.908112,33.325806 342.983459,39.395672 
	C343.044983,44.350800 340.191040,47.675095 333.497925,50.031540 
	C332.643951,50.403183 332.070374,50.496059 331.241089,50.723648 
	C330.564178,50.923531 330.139374,50.977863 329.395142,51.070152 
	C327.256470,50.940598 325.434906,50.985935 323.273010,51.079613 
	C322.500519,51.070107 322.068146,51.027611 321.315643,50.923950 
	C320.510010,50.499519 319.903351,50.517242 319.110077,50.191765 
	C313.412933,49.017841 309.028168,44.953182 308.350922,40.326920 
	C308.236420,39.544739 307.802338,38.810383 308.807465,38.195824 
	C310.855835,36.943398 319.650757,38.392212 320.937042,40.571449 
	C322.770416,43.677620 324.984344,43.177788 327.637115,42.024807 
	C328.791992,41.522873 329.787079,41.052223 329.915466,39.721336 
	C330.071533,38.103153 328.918121,37.565662 327.677094,36.854961 
	C326.101776,35.952843 324.483276,36.201565 322.868256,35.965633 
	C317.156067,35.131176 311.839783,33.581181 309.327515,27.157448 
	C309.810486,24.769918 309.310669,22.658457 309.753448,20.245415 
	C311.908417,14.490918 315.109680,12.220992 321.529938,11.952333 
	C323.656097,11.052896 325.513855,11.729341 327.647980,11.307278 
	C333.294739,12.257490 338.644897,13.259876 341.015533,19.500547 
	C342.049286,22.184746 341.643860,23.573902 338.762939,23.511091 
	C336.520355,23.462198 334.275116,23.476118 331.599854,23.636837 
	C330.298950,22.548441 329.429474,21.344912 328.260925,19.990023 
	C326.480743,19.236315 324.965515,19.485308 323.235931,19.903837 
z"/>
<path fill="#3C3B70" opacity="1.000000" stroke="none" 
	d="
M64.289566,37.653378 
	C60.638519,37.879303 57.183247,38.214596 53.777645,37.938099 
	C49.700333,37.607071 48.512478,39.412678 49.075756,43.494179 
	C53.964783,45.195942 58.917160,44.443268 63.809082,44.399761 
	C67.065140,44.370804 67.620758,45.607544 67.585381,48.468140 
	C67.551414,51.214230 67.247307,52.675854 63.879330,52.580475 
	C55.625019,52.346722 47.358978,52.474380 38.648102,52.623650 
	C36.444454,50.522324 37.233932,47.925064 37.206726,45.506874 
	C37.109463,36.862572 37.287716,28.214216 37.119011,19.572132 
	C37.052784,16.179256 38.103943,14.840261 41.647469,14.934392 
	C49.788555,15.150657 57.938629,15.028808 66.552704,15.093714 
	C68.023643,17.374071 67.269501,19.724745 67.425987,22.434956 
	C61.541115,24.299953 55.613251,23.070793 49.428253,23.829121 
	C49.090286,25.432745 49.077312,26.764606 49.093697,28.495113 
	C52.905636,30.257887 56.823250,29.092896 60.652065,29.518196 
	C62.090202,29.677942 64.124855,28.636938 64.691246,31.575098 
	C64.889793,33.366295 64.934669,34.792126 64.910736,36.641479 
	C64.730385,37.207275 64.618858,37.349541 64.289566,37.653378 
z"/>
<path fill="#B41F30" opacity="1.000000" stroke="none" 
	d="
M357.758972,25.552929 
	C362.683868,26.544550 367.400635,26.319740 372.572693,25.959541 
	C374.068604,22.611340 373.497467,19.287086 373.422180,16.029537 
	C373.355286,13.135695 374.409515,12.382379 377.146515,12.448714 
	C384.964417,12.638191 383.435669,12.075872 383.476318,18.768003 
	C383.537567,28.848635 383.559509,38.930401 383.227600,49.425049 
	C380.296417,49.879387 377.592316,49.920139 374.441284,49.898563 
	C372.859344,45.870152 373.836884,41.810551 373.306305,37.405792 
	C373.150665,37.000763 373.020630,36.590813 373.004211,36.376404 
	C368.261200,34.763416 363.433105,35.788330 358.341492,35.851357 
	C358.025513,36.140968 357.982605,36.588741 357.916016,36.803577 
	C357.052765,41.020870 357.758026,45.073109 357.227448,49.463982 
	C354.298309,49.877808 351.591003,49.919392 348.436157,49.898777 
	C346.889404,40.223389 347.783051,30.576624 347.509308,20.949221 
	C347.447754,18.784544 347.496582,16.616541 347.523834,13.987858 
	C350.146790,11.306222 353.197449,12.832968 356.024780,12.600968 
	C357.595703,12.472066 357.485504,14.056852 357.496796,15.213111 
	C357.529144,18.529341 357.447601,21.846115 357.758972,25.552929 
z"/>
<path fill="#3E3D72" opacity="1.000000" stroke="none" 
	d="
M117.762955,15.575684 
	C124.629814,15.081409 131.276566,14.969703 137.923203,14.975352 
	C145.343414,14.981659 150.497543,20.312618 151.072586,27.647820 
	C151.836533,37.392643 145.878540,41.773449 138.472565,42.913651 
	C135.711365,43.338757 132.831787,42.995159 129.550537,43.007923 
	C127.721962,45.900219 129.066177,49.034721 127.871384,52.214348 
	C117.500008,52.598694 117.489220,52.598679 117.503189,42.841831 
	C117.515991,33.897900 117.444016,24.953825 117.762955,15.575684 
z"/>
<path fill="#3D3C71" opacity="1.000000" stroke="none" 
	d="
M199.328491,23.910503 
	C199.020889,24.248997 199.009216,24.656143 198.947968,24.850368 
	C197.636032,28.561350 198.909470,29.774879 202.552643,29.559034 
	C206.476929,29.326532 210.429123,29.440632 214.745651,29.751020 
	C217.251633,37.102318 216.691620,37.974575 209.935211,37.996506 
	C206.631775,38.007225 203.328262,38.000641 199.563416,38.004837 
	C197.952499,39.764320 198.639679,41.674992 198.913940,43.758530 
	C199.189056,43.989136 199.630997,44.012241 199.844360,44.070911 
	C205.703629,45.001949 211.390182,44.216255 217.443344,44.761192 
	C217.872772,47.032101 217.908264,49.087830 217.891830,51.581554 
	C208.613785,53.064903 199.358856,52.269943 190.119064,52.445160 
	C189.140167,52.463722 188.665894,51.822723 188.311523,50.483521 
	C188.097778,38.991348 188.056168,27.940477 188.076050,16.421513 
	C188.256012,15.804893 188.374512,15.656366 188.720398,15.336050 
	C196.216599,15.108790 203.485321,15.028414 210.754227,15.004844 
	C218.041000,14.981217 218.041077,15.006062 217.886566,22.602840 
	C211.790268,24.080214 205.693756,23.153168 199.328491,23.910503 
z"/>
<path fill="#B41F31" opacity="1.000000" stroke="none" 
	d="
M488.428528,20.694586 
	C487.978394,20.853252 487.596741,20.985985 487.395447,21.003033 
	C485.680756,27.227350 485.869629,27.491394 491.834808,27.499731 
	C493.151520,27.501572 494.468201,27.499954 495.784912,27.500006 
	C502.544037,27.500273 502.544037,27.500282 502.277893,34.756474 
	C498.499786,35.866989 494.862762,35.252144 491.260651,35.528965 
	C489.271576,35.681820 486.500244,34.286385 486.411713,38.378914 
	C486.326080,42.336727 488.865601,41.452862 491.020844,41.487190 
	C494.153748,41.537098 497.315826,41.763008 500.414795,41.434914 
	C504.495392,41.002899 506.234497,42.388519 505.519745,46.544476 
	C505.382050,47.345291 505.505005,48.190388 505.246765,49.423267 
	C496.266357,49.887650 487.496429,49.901772 478.728027,50.025646 
	C476.371796,50.058929 475.021667,49.548492 475.070496,46.774624 
	C475.271210,35.368996 475.328827,23.960850 475.823303,12.373509 
	C484.519562,12.876015 492.846680,12.427370 501.165161,12.441363 
	C504.097626,12.446296 505.721619,12.721375 505.634033,16.392431 
	C505.555511,19.685406 504.691406,20.782791 501.373596,20.569275 
	C497.225708,20.302332 493.044922,20.455679 488.428528,20.694586 
z"/>
<path fill="#3D3C71" opacity="1.000000" stroke="none" 
	d="
M154.755951,15.603476 
	C165.935013,14.582868 165.933868,14.582868 165.935852,25.382900 
	C165.936737,30.186220 166.086533,34.995182 165.897675,39.790905 
	C165.768326,43.075932 167.086884,44.262436 170.262222,44.023281 
	C172.567780,43.849640 174.897308,43.993687 177.216156,43.997837 
	C184.050858,44.010071 184.050858,44.010410 183.897018,51.579895 
	C174.506973,53.070908 165.141968,52.256649 155.335693,52.300064 
	C154.045441,40.109608 154.685074,28.072428 154.755951,15.603476 
z"/>
<path fill="#B52233" opacity="1.000000" stroke="none" 
	d="
M279.016907,59.525730 
	C277.144135,60.988018 275.055878,61.027393 272.547119,60.950871 
	C270.429108,58.240833 268.713043,55.543159 266.966675,52.495396 
	C266.758118,51.847851 266.552887,51.570618 266.117798,51.149673 
	C265.919495,50.982361 265.994629,51.023724 265.973938,51.061279 
	C265.601318,50.602520 265.513947,50.005207 265.092529,49.260445 
	C264.519012,49.003761 264.251740,48.822220 263.961243,48.301895 
	C263.861969,48.075073 263.928314,47.592716 263.928314,47.592716 
	C263.928314,47.592716 263.441559,47.604485 263.230682,47.726112 
	C260.701111,49.013771 260.683197,51.786789 258.917694,53.771599 
	C256.219025,54.182983 253.315292,56.162067 251.785126,52.198219 
	C252.813736,50.296947 253.603378,48.802319 254.646866,47.114044 
	C255.453964,46.573097 255.485138,45.965820 255.795105,45.174507 
	C255.943985,44.925770 255.992630,44.968166 255.966934,44.987671 
	C256.418213,44.597946 256.489594,44.009109 256.794495,43.210739 
	C256.958588,42.970478 256.997894,42.987625 256.979736,42.984066 
	C257.210693,42.785507 257.442444,42.571693 257.809387,42.158119 
	C257.961945,41.977173 257.990234,41.990177 257.980103,41.977741 
	C258.447327,41.571762 258.487091,40.987595 258.786804,40.212029 
	C258.943024,39.975437 258.960052,39.974804 258.962646,39.967552 
	C259.190552,39.715538 259.420959,39.475666 259.818359,39.050896 
	C259.980255,38.861099 259.977783,38.945248 259.935699,38.943981 
	C261.969574,38.062092 264.137024,38.656254 266.676208,38.748413 
	C267.091522,38.949242 267.030365,38.942204 267.045776,38.915543 
	C267.550934,39.016010 267.884247,40.181004 268.470276,39.270390 
	C268.749268,38.836899 268.493561,38.055424 268.778534,37.152901 
	C268.859009,35.482944 269.348755,34.305420 270.526276,33.118309 
	C279.663971,32.309448 288.511108,31.981337 297.591309,33.558693 
	C297.133667,35.228741 296.432770,36.486683 295.452271,37.885155 
	C289.759247,39.068726 284.286041,38.204227 278.421265,38.692215 
	C277.992249,38.847889 277.593536,38.985603 277.384155,39.010849 
	C277.000549,39.163387 276.826355,39.290676 276.755463,39.724655 
	C278.762665,43.224304 283.753845,45.718861 279.027222,50.699497 
	C278.593628,51.575996 278.279419,52.077591 277.114685,52.265121 
	C276.425873,52.341240 276.286224,52.448582 276.134583,52.819878 
	C277.079742,55.115383 278.036865,57.146946 279.016907,59.525730 
z"/>
<path fill="#B52333" opacity="1.000000" stroke="none" 
	d="
M268.017120,24.529320 
	C270.674835,19.694162 273.354828,15.198589 276.133545,10.358774 
	C277.004120,8.964973 277.825348,7.947634 278.536346,6.858357 
	C279.619324,5.199211 280.452759,1.942398 282.803436,3.737710 
	C284.585968,5.099081 287.158722,7.617074 284.577271,11.190926 
	C281.969025,14.801864 280.695648,19.335978 277.027832,22.729532 
	C276.920624,25.657879 278.932587,24.262318 280.037048,24.436184 
	C281.745636,24.705156 283.521667,24.438713 285.554688,24.787537 
	C286.562927,26.097433 287.283691,27.179832 288.036194,28.594397 
	C288.118408,31.220078 286.338348,30.446703 285.252747,30.462107 
	C280.789886,30.525433 276.324646,30.555958 271.421570,30.255630 
	C269.495087,28.614481 268.847656,26.696087 268.017120,24.529320 
z"/>
<path fill="#BA3040" opacity="1.000000" stroke="none" 
	d="
M383.371887,49.635979 
	C382.991943,39.561981 382.986725,29.285332 382.972595,19.008692 
	C382.968475,16.021753 382.728271,13.215680 378.695007,13.111135 
	C374.407379,12.999994 374.043274,15.846889 373.966187,19.096329 
	C373.915894,21.217064 374.439880,23.414837 373.202240,25.643887 
	C373.025177,22.190777 373.098053,18.539980 372.991028,14.894464 
	C372.928284,12.757254 373.776489,12.121641 375.884552,11.958205 
	C383.948212,11.333033 384.036224,11.301283 383.995880,19.108927 
	C383.943634,29.217226 383.830261,39.325211 383.371887,49.635979 
z"/>
<path fill="#BA3245" opacity="1.000000" stroke="none" 
	d="
M457.819702,12.598904 
	C452.785248,12.957016 447.480042,13.118390 442.185791,12.945565 
	C437.743103,12.800540 435.899628,14.616619 435.970703,19.105169 
	C436.128052,29.041153 436.008209,38.981525 436.000061,49.378307 
	C434.369019,49.038689 435.038910,47.522640 435.031830,46.332031 
	C434.971710,36.234505 435.075043,26.135492 434.947723,16.039215 
	C434.912170,13.219840 435.446503,11.795326 438.709625,11.949589 
	C444.981812,12.246100 451.271332,12.175632 457.819702,12.598904 
z"/>
<path fill="#4C4C7C" opacity="1.000000" stroke="none" 
	d="
M38.643517,52.819481 
	C44.597855,51.247028 51.092915,52.332687 57.535934,52.013924 
	C59.357872,51.923786 61.189247,52.003033 63.008415,51.884094 
	C65.016495,51.752804 66.612770,50.946369 66.674225,48.643845 
	C66.743324,46.055138 65.007858,45.325176 62.799194,45.080032 
	C58.379398,44.589470 53.861935,45.803791 49.305206,44.111366 
	C54.230869,43.949444 59.363602,44.167156 64.477135,43.944294 
	C67.991081,43.791145 68.089523,45.723351 68.056030,48.290073 
	C68.022095,50.890450 68.276917,53.161327 64.380005,53.048889 
	C55.955204,52.805813 47.519676,52.934559 38.643517,52.819481 
z"/>
<path fill="#BA313F" opacity="1.000000" stroke="none" 
	d="
M488.446960,20.908405 
	C491.859985,19.431276 495.906921,20.223026 499.875610,19.970625 
	C502.331299,19.814447 504.811615,19.548433 504.645599,16.260059 
	C504.496674,13.309738 502.120911,13.145514 499.887970,13.038886 
	C492.244171,12.673882 484.567841,13.605607 476.575287,12.329216 
	C485.012177,12.132197 493.822113,12.230588 502.619293,11.940889 
	C506.866180,11.801036 505.831573,14.542736 506.027740,16.873236 
	C506.257141,19.598215 505.789703,21.277494 502.373474,21.061371 
	C497.903290,20.778572 493.402924,20.973906 488.446960,20.908405 
z"/>
<path fill="#BD3847" opacity="1.000000" stroke="none" 
	d="
M505.392365,49.632988 
	C504.862518,42.243626 504.681122,42.074383 497.076263,42.016682 
	C494.586548,41.997795 492.089264,42.026505 489.610321,41.837757 
	C487.533539,41.679623 486.183533,40.514263 486.307404,38.271019 
	C486.416840,36.288517 487.749115,35.255840 489.586456,35.176624 
	C493.399841,35.012215 497.221283,35.035427 501.504242,34.979477 
	C502.123749,34.750389 502.278473,34.523331 502.630493,34.658115 
	C498.789062,37.146332 494.457642,35.533859 490.283539,35.975060 
	C488.593018,36.153744 486.986145,35.871700 486.966461,38.450829 
	C486.947327,40.964043 488.400513,41.017338 490.191193,41.000885 
	C493.524078,40.970253 496.902069,41.340199 500.180298,40.916630 
	C505.173187,40.271503 506.828491,42.262257 505.998413,46.958477 
	C505.854492,47.772785 505.829132,48.608055 505.392365,49.632988 
z"/>
<path fill="#4B4B79" opacity="1.000000" stroke="none" 
	d="
M117.643761,15.385095 
	C117.989769,24.380116 117.992516,33.618896 118.004173,42.857666 
	C118.015656,51.960503 118.066284,52.007446 127.501167,51.957748 
	C128.125168,52.085640 128.303696,52.221954 128.248749,52.601196 
	C117.001648,53.388607 116.962807,53.388424 117.013565,42.579449 
	C117.055756,33.595657 117.203445,24.612364 117.643761,15.385095 
z"/>
<path fill="#BD3A49" opacity="1.000000" stroke="none" 
	d="
M348.374390,12.799890 
	C348.030853,25.002659 348.012390,36.961411 347.991272,49.378372 
	C346.975189,49.495811 347.017456,48.621971 347.022125,47.817554 
	C347.090240,36.072987 347.172363,24.328499 347.617706,12.376736 
	C348.222656,12.298278 348.461060,12.427075 348.374390,12.799890 
z"/>
<path fill="#505083" opacity="1.000000" stroke="none" 
	d="
M154.635834,15.411804 
	C154.987396,27.129837 155.004379,39.095280 155.024384,51.529228 
	C154.880981,52.152367 154.734589,52.306992 154.375854,52.223038 
	C154.209427,39.876038 154.255341,27.767626 154.635834,15.411804 
z"/>
<path fill="#484879" opacity="1.000000" stroke="none" 
	d="
M188.111176,50.464310 
	C190.110718,51.940578 192.594604,51.990253 195.101181,51.990311 
	C202.375290,51.990475 209.649399,52.003315 217.381714,52.015366 
	C215.202621,54.041660 212.167404,52.849640 209.335693,52.946159 
	C203.431915,53.147392 197.515930,53.041046 191.605957,52.973511 
	C190.124603,52.956581 188.067108,53.574226 188.111176,50.464310 
z"/>
<path fill="#4A4A7A" opacity="1.000000" stroke="none" 
	d="
M154.402161,52.326664 
	C154.163498,51.984451 154.595154,51.990952 154.811264,51.994347 
	C164.326843,52.003056 173.626312,52.008377 183.384155,52.018341 
	C181.361694,53.949371 178.482132,52.902767 175.815048,52.934032 
	C168.758987,53.016743 161.699158,52.779053 154.402161,52.326664 
z"/>
<path fill="#BA313F" opacity="1.000000" stroke="none" 
	d="
M502.888916,34.573067 
	C502.827820,35.019958 502.398651,35.000816 502.183838,34.989132 
	C501.791565,28.592102 501.354767,28.136105 495.264709,28.018333 
	C493.779572,27.989611 492.291718,28.029520 490.809113,27.956430 
	C486.550079,27.746462 485.236725,25.636831 487.022644,21.357630 
	C486.099701,25.636959 487.650146,27.818562 492.610260,27.021641 
	C493.730499,26.841661 494.904266,26.994999 496.053406,26.995348 
	C503.030731,26.997465 503.030731,26.997507 502.888916,34.573067 
z"/>
<path fill="#525080" opacity="1.000000" stroke="none" 
	d="
M228.227020,29.494383 
	C236.832291,31.046904 245.552521,29.518387 254.677246,30.033112 
	C248.071747,32.183266 240.817535,30.521706 233.652725,30.926313 
	C231.871414,31.026903 229.700562,31.903151 228.227020,29.494383 
z"/>
<path fill="#B92C3E" opacity="1.000000" stroke="none" 
	d="
M297.848694,33.546455 
	C289.214935,31.921005 280.456207,33.501503 271.296417,32.969231 
	C277.608276,30.857243 284.572845,32.383850 291.450439,32.099491 
	C293.531982,32.013428 296.062988,30.808220 297.848694,33.546455 
z"/>
<path fill="#B92D3C" opacity="1.000000" stroke="none" 
	d="
M348.487244,13.036716 
	C348.049347,13.043905 348.013794,12.606920 347.999023,12.388200 
	C357.999908,11.622739 358.000061,11.622739 357.997253,21.561867 
	C357.996918,22.716715 357.993927,23.871565 357.983643,25.485094 
	C356.669647,24.567484 357.054962,22.832108 357.015808,21.210485 
	C356.821960,13.185249 356.752136,13.100306 348.487244,13.036716 
z"/>
<path fill="#B62434" opacity="1.000000" stroke="none" 
	d="
M268.685364,37.001915 
	C269.336700,39.730240 271.807709,41.945133 271.898834,45.511120 
	C268.629059,44.307205 268.615204,41.434555 267.190247,39.211098 
	C267.514374,38.304405 267.967590,37.719933 268.685364,37.001915 
z"/>
<path fill="#525282" opacity="1.000000" stroke="none" 
	d="
M214.834427,29.631918 
	C210.868607,29.946947 206.612442,30.016994 202.361115,29.904114 
	C199.759644,29.835043 197.763916,28.961847 198.768524,25.367788 
	C198.671082,27.815008 199.493958,29.258503 202.730911,29.075024 
	C206.652267,28.852755 210.606247,29.205719 214.834427,29.631918 
z"/>
<path fill="#BC3749" opacity="1.000000" stroke="none" 
	d="
M271.232819,30.404808 
	C276.415771,29.600780 281.926788,30.779558 287.689331,29.104187 
	C289.531342,31.481825 287.358795,30.952785 286.218628,30.952208 
	C281.306793,30.949726 276.395081,30.830122 271.232819,30.404808 
z"/>
<path fill="#4D4C80" opacity="1.000000" stroke="none" 
	d="
M64.872467,31.517876 
	C62.072742,29.326088 58.592236,30.243662 55.334366,30.011240 
	C53.381203,29.871899 51.324223,30.516117 49.313030,29.093971 
	C53.221031,28.925997 57.320309,28.908964 61.416298,29.016752 
	C62.883255,29.055357 64.960930,28.371655 64.872467,31.517876 
z"/>
<path fill="#525282" opacity="1.000000" stroke="none" 
	d="
M199.480713,24.160677 
	C204.846954,21.808537 210.952515,23.455542 217.373108,23.036079 
	C211.974304,25.261200 205.880753,23.329180 199.480713,24.160677 
z"/>
<path fill="#555580" opacity="1.000000" stroke="none" 
	d="
M49.564011,24.064215 
	C54.640228,21.740585 60.390015,23.414604 66.501251,23.455761 
	C61.316208,23.811941 55.670483,23.919744 49.564011,24.064215 
z"/>
<path fill="#50507F" opacity="1.000000" stroke="none" 
	d="
M254.455841,32.126137 
	C249.975510,33.981579 244.660172,32.037521 239.333145,33.890232 
	C237.178497,31.643652 239.512939,32.070126 240.511581,32.051567 
	C245.005280,31.968067 249.501999,32.046906 254.455841,32.126137 
z"/>
<path fill="#B4212C" opacity="1.000000" stroke="none" 
	d="
M403.470337,50.942509 
	C407.029144,49.441082 411.139252,50.191177 415.654449,50.063858 
	C412.208527,52.627476 408.021057,51.558552 403.470337,50.942509 
z"/>
<path fill="#4A487B" opacity="1.000000" stroke="none" 
	d="
M217.585999,44.646278 
	C212.167313,44.749050 206.460968,45.599800 200.440735,44.265865 
	C205.816711,44.191784 211.575714,44.253986 217.585999,44.646278 
z"/>
<path fill="#BA3040" opacity="1.000000" stroke="none" 
	d="
M278.458374,38.904549 
	C283.332458,37.256218 288.807373,38.309872 294.693359,38.023804 
	C289.859314,40.120327 284.331940,38.499081 278.458374,38.904549 
z"/>
<path fill="#484879" opacity="1.000000" stroke="none" 
	d="
M246.490387,24.097097 
	C241.960373,25.706099 236.832657,24.729004 231.292145,24.956429 
	C235.781357,22.883327 240.965134,24.475077 246.490387,24.097097 
z"/>
<path fill="#BC3546" opacity="1.000000" stroke="none" 
	d="
M358.487396,36.086506 
	C362.725952,34.400280 367.469635,34.580898 372.612488,35.991570 
	C368.308289,36.118675 363.628784,36.075359 358.487396,36.086506 
z"/>
<path fill="#BA3245" opacity="1.000000" stroke="none" 
	d="
M331.602539,23.848019 
	C334.141754,21.993246 338.594452,24.700451 340.904419,20.217058 
	C342.936279,22.555473 342.529083,24.064907 338.945251,24.001568 
	C336.642761,23.960875 334.339569,23.961805 331.602539,23.848019 
z"/>
<path fill="#B92B3B" opacity="1.000000" stroke="none" 
	d="
M357.369934,49.631813 
	C357.176971,45.818089 356.531097,41.760601 357.717651,37.401703 
	C357.811066,41.154743 357.772644,45.291073 357.369934,49.631813 
z"/>
<path fill="#B92B3B" opacity="1.000000" stroke="none" 
	d="
M373.093292,37.458351 
	C374.560730,40.900543 373.808075,44.953655 373.995728,49.388115 
	C371.885193,46.006691 373.507568,41.877136 373.093292,37.458351 
z"/>
<path fill="#B6273B" opacity="1.000000" stroke="none" 
	d="
M323.161499,51.413918 
	C324.714264,50.142853 326.537933,49.914177 328.750397,50.953705 
	C327.329315,52.704086 325.312286,51.765240 323.161499,51.413918 
z"/>
<path fill="#B92E3E" opacity="1.000000" stroke="none" 
	d="
M285.677856,24.642727 
	C282.906708,24.452431 279.582458,26.236996 276.919373,23.292336 
	C279.487244,25.157648 282.705444,23.274817 285.677856,24.642727 
z"/>
<path fill="#B92E3E" opacity="1.000000" stroke="none" 
	d="
M445.374329,49.634804 
	C445.194183,46.465046 444.464478,43.022198 445.997772,39.382133 
	C446.023499,42.488705 445.880249,45.962170 445.374329,49.634804 
z"/>
<path fill="#BA313F" opacity="1.000000" stroke="none" 
	d="
M468.363037,30.891018 
	C468.021576,27.699183 468.017242,24.245872 468.014709,20.320351 
	C469.871460,23.338758 468.877045,27.010073 468.363037,30.891018 
z"/>
<path fill="#525282" opacity="1.000000" stroke="none" 
	d="
M128.361298,52.625870 
	C128.015274,52.844116 127.983261,52.397038 127.964951,52.173180 
	C128.159592,49.207291 127.594017,46.386311 128.936874,43.378304 
	C128.965698,46.145054 128.836517,49.276337 128.361298,52.625870 
z"/>
<path fill="#BC3546" opacity="1.000000" stroke="none" 
	d="
M388.621674,26.136543 
	C388.962311,28.972340 388.968842,32.062111 388.970825,35.613777 
	C387.052216,32.965561 388.215088,29.639835 388.621674,26.136543 
z"/>
<path fill="#4C4C7C" opacity="1.000000" stroke="none" 
	d="
M67.261200,23.463509 
	C66.961937,23.704138 66.956802,23.509483 66.961411,23.416725 
	C66.977737,20.891508 66.989464,18.459047 67.010773,15.584909 
	C68.937752,17.720312 67.937653,20.492414 67.261200,23.463509 
z"/>
<path fill="#BA313F" opacity="1.000000" stroke="none" 
	d="
M510.642120,19.097130 
	C510.891571,21.595430 511.272339,24.384436 510.301392,27.451614 
	C510.212067,24.991623 510.260498,22.174654 510.642120,19.097130 
z"/>
<path fill="#B62434" opacity="1.000000" stroke="none" 
	d="
M274.167450,51.246880 
	C275.438324,51.024727 276.853912,51.076725 278.562866,51.077316 
	C279.249603,52.769276 278.188934,53.047142 276.479309,53.057117 
	C275.519135,52.562889 274.915680,52.041958 274.167450,51.246880 
z"/>
<path fill="#464575" opacity="1.000000" stroke="none" 
	d="
M113.365356,35.857132 
	C112.497307,34.982533 112.202347,33.861874 112.855721,32.379257 
	C114.009178,33.143368 113.986687,34.364166 113.365356,35.857132 
z"/>
<path fill="#484879" opacity="1.000000" stroke="none" 
	d="
M241.168457,38.347435 
	C243.348404,38.074165 245.820053,37.797771 248.575851,38.734806 
	C246.441315,38.797958 243.938431,38.729343 241.168457,38.347435 
z"/>
<path fill="#484879" opacity="1.000000" stroke="none" 
	d="
M93.648094,13.842046 
	C92.835876,14.594754 91.760117,14.801345 90.374847,14.152212 
	C91.123543,13.106365 92.190895,12.722858 93.648094,13.842046 
z"/>
<path fill="#BD3847" opacity="1.000000" stroke="none" 
	d="
M309.621948,20.141220 
	C309.801819,21.979219 309.654022,24.052952 309.371429,26.476452 
	C308.892822,24.673220 308.823761,22.522678 309.621948,20.141220 
z"/>
<path fill="#BA313F" opacity="1.000000" stroke="none" 
	d="
M266.855225,38.634369 
	C264.992950,38.955166 262.894348,38.961094 260.344696,38.954868 
	C261.991150,37.178215 264.338715,38.112152 266.855225,38.634369 
z"/>
<path fill="#50507F" opacity="1.000000" stroke="none" 
	d="
M199.121552,43.565842 
	C198.173996,42.272919 197.797852,40.511028 198.954712,38.328930 
	C199.086044,39.719368 199.070038,41.430962 199.121552,43.565842 
z"/>
<path fill="#525282" opacity="1.000000" stroke="none" 
	d="
M89.473648,53.908581 
	C90.730301,53.066410 92.442947,52.917934 94.510010,53.626961 
	C93.170494,53.821114 91.527588,53.889282 89.473648,53.908581 
z"/>
<path fill="#BC3546" opacity="1.000000" stroke="none" 
	d="
M528.589966,11.084656 
	C527.323547,11.937942 525.596985,12.107660 523.510803,11.384794 
	C524.861389,11.186337 526.517456,11.107047 528.589966,11.084656 
z"/>
<path fill="#00001C" opacity="1.000000" stroke="none" 
	d="
M256.047028,19.550964 
	C257.228455,19.472485 257.801086,20.273932 257.996399,21.769379 
	C258.039368,22.537287 258.042358,22.984236 258.021454,23.766973 
	C257.363495,22.683025 256.729370,21.263287 256.047028,19.550964 
z"/>
<path fill="#BD3847" opacity="1.000000" stroke="none" 
	d="
M411.618652,11.100971 
	C410.329681,11.896235 408.543671,11.991383 406.347473,11.929260 
	C407.472046,10.200951 409.460999,11.319911 411.618652,11.100971 
z"/>
<path fill="#BC3749" opacity="1.000000" stroke="none" 
	d="
M327.602234,11.094419 
	C326.314819,11.904597 324.522461,11.979508 322.323181,11.934723 
	C323.443878,10.185951 325.442932,11.331204 327.602234,11.094419 
z"/>
<path fill="#BA313F" opacity="1.000000" stroke="none" 
	d="
M323.428040,20.092106 
	C324.381775,19.320660 325.807465,18.987804 327.657227,19.721516 
	C326.587097,19.903963 325.212341,19.969267 323.428040,20.092106 
z"/>
<path fill="#4A487B" opacity="1.000000" stroke="none" 
	d="
M33.321144,33.943138 
	C33.228645,33.309467 33.420387,32.481483 33.734951,31.357830 
	C33.773643,31.957712 33.689514,32.853268 33.321144,33.943138 
z"/>
<path fill="#4A487B" opacity="1.000000" stroke="none" 
	d="
M33.899330,26.609169 
	C33.607376,26.138554 33.357952,25.325933 33.070801,24.195408 
	C34.067966,24.395689 33.934982,25.358021 33.899330,26.609169 
z"/>
<path fill="#464575" opacity="1.000000" stroke="none" 
	d="
M112.924004,29.663141 
	C112.661324,29.453384 112.434235,28.933838 112.125305,28.142521 
	C112.348846,28.364950 112.654221,28.859150 112.924004,29.663141 
z"/>
<path fill="#484879" opacity="1.000000" stroke="none" 
	d="
M97.635811,14.105347 
	C97.440987,14.197926 96.933044,14.227495 96.238556,14.197224 
	C96.475571,14.105700 96.899132,14.074019 97.635811,14.105347 
z"/>
<path fill="#B6273B" opacity="1.000000" stroke="none" 
	d="
M319.018890,50.319084 
	C319.401276,50.231651 319.940491,50.421646 320.737610,50.737213 
	C320.388916,50.774025 319.782318,50.685268 319.018890,50.319084 
z"/>
<path fill="#484879" opacity="1.000000" stroke="none" 
	d="
M87.648605,14.084162 
	C87.455917,14.173590 86.946419,14.217668 86.248886,14.206012 
	C86.484497,14.113123 86.908150,14.075968 87.648605,14.084162 
z"/>
<path fill="#B6273B" opacity="1.000000" stroke="none" 
	d="
M331.306213,50.921387 
	C331.519043,50.647705 332.049133,50.426208 332.855286,50.125057 
	C332.628723,50.354794 332.126099,50.664185 331.306213,50.921387 
z"/>
<path fill="#4D4C80" opacity="1.000000" stroke="none" 
	d="
M64.281982,37.798187 
	C64.242775,37.648197 64.413963,37.481674 64.713646,37.190186 
	C64.890755,37.384571 64.774170,37.623383 64.281982,37.798187 
z"/>
<path fill="#48487C" opacity="1.000000" stroke="none" 
	d="
M11.931620,43.728951 
	C11.936668,43.730362 11.999503,43.491837 12.083921,43.131374 
	C12.108616,43.010288 11.992516,43.489868 11.931620,43.728951 
z"/>
<path fill="#484879" opacity="1.000000" stroke="none" 
	d="
M188.727234,15.183079 
	C188.776474,15.348384 188.599258,15.526631 188.276825,15.826212 
	C188.087784,15.618031 188.210831,15.367522 188.727234,15.183079 
z"/>
<path fill="#464575" opacity="1.000000" stroke="none" 
	d="
M112.894180,38.728012 
	C112.810638,38.724018 112.814026,38.489872 112.871384,38.140877 
	C112.893501,38.025101 112.949257,38.496929 112.894180,38.728012 
z"/>
<path fill="#BA3040" opacity="1.000000" stroke="none" 
	d="
M276.937744,39.782532 
	C276.909637,39.773224 276.983368,39.522034 277.127319,39.156933 
	C277.122101,39.201969 277.069427,39.367844 276.937744,39.782532 
z"/>
<path fill="#B62434" opacity="1.000000" stroke="none" 
	d="
M259.797485,38.886139 
	C259.764008,39.114204 259.542053,39.362198 259.139832,39.782688 
	C259.006500,39.793411 259.047729,39.626530 259.169678,39.214748 
	C259.250427,38.969845 259.614716,38.911182 259.797485,38.886139 
z"/>
<path fill="#BA313F" opacity="1.000000" stroke="none" 
	d="
M529.395142,27.298870 
	C530.597656,27.217260 532.143494,27.264362 533.911682,27.632381 
	C532.668884,27.778057 531.203674,27.602818 529.395142,27.298870 
z"/>
<path fill="#BA3040" opacity="1.000000" stroke="none" 
	d="
M528.679321,20.013531 
	C527.598267,20.121889 526.219910,20.081707 524.431763,20.104431 
	C525.424133,19.328121 526.861084,18.990522 528.679321,20.013531 
z"/>
<path fill="#000001" opacity="1.000000" stroke="none" 
	d="
M19.546661,23.833035 
	C24.089537,28.238499 24.026850,29.817234 19.265095,33.963547 
	C18.489515,34.279392 18.044983,34.575272 17.535067,34.476040 
	C15.555978,34.090893 12.577105,35.777100 11.763822,33.316986 
	C10.870105,30.613564 11.316731,27.447605 11.678078,24.507790 
	C11.786127,23.628727 12.845300,23.503349 13.707171,23.508003 
	C15.516384,23.517775 17.326248,23.450182 19.546661,23.833035 
z"/>
<path fill="#50507F" opacity="1.000000" stroke="none" 
	d="
M19.599293,23.952694 
	C19.134253,24.072588 18.309723,24.015091 17.485050,24.012966 
	C12.585398,24.000345 9.865339,28.386095 12.239862,32.737862 
	C13.558681,35.154842 16.133615,33.545078 18.518173,34.084740 
	C16.402077,34.959808 13.507700,35.993507 11.844451,33.127186 
	C10.327742,30.513399 10.233957,27.183084 11.999745,24.650963 
	C13.789911,22.083887 16.671242,22.911165 19.599293,23.952694 
z"/>
<path fill="#000000" opacity="1.000000" stroke="none" 
	d="
M256.068909,19.196571 
	C255.119049,18.557291 254.224380,17.893167 254.068085,16.567726 
	C255.582535,16.593395 255.839828,17.540916 255.973846,18.936497 
	C255.998764,19.258385 256.052124,19.223633 256.068909,19.196571 
z"/>
<path fill="#BA3040" opacity="1.000000" stroke="none" 
	d="
M251.770706,51.957397 
	C253.379929,54.173653 255.736511,53.933506 258.346771,54.066940 
	C256.138092,55.308712 253.559433,55.771851 250.934662,53.480320 
	C251.053299,52.774220 251.285309,52.448723 251.770706,51.957397 
z"/>
<path fill="#B62434" opacity="1.000000" stroke="none" 
	d="
M258.687683,40.125652 
	C258.714142,40.480026 258.485229,40.984612 258.113129,41.727253 
	C258.124054,41.402157 258.278198,40.839008 258.687683,40.125652 
z"/>
<path fill="#B62434" opacity="1.000000" stroke="none" 
	d="
M255.681503,45.075607 
	C255.697159,45.434521 255.450333,45.943272 255.052094,46.686207 
	C255.073471,46.355412 255.246246,45.790428 255.681503,45.075607 
z"/>
<path fill="#B62434" opacity="1.000000" stroke="none" 
	d="
M256.711609,43.138893 
	C256.716705,43.485600 256.474792,44.000721 256.087067,44.761509 
	C256.115692,44.440556 256.290131,43.873932 256.711609,43.138893 
z"/>
<path fill="#B62434" opacity="1.000000" stroke="none" 
	d="
M257.735107,42.075737 
	C257.754089,42.214134 257.536530,42.441860 257.135437,42.820427 
	C257.048950,42.647423 257.231171,42.378689 257.735107,42.075737 
z"/>
<path fill="#B62434" opacity="1.000000" stroke="none" 
	d="
M263.226105,47.920258 
	C263.341034,47.602497 263.612915,47.619480 263.848694,47.986881 
	C263.861969,48.075073 263.432404,47.992783 263.226105,47.920258 
z"/>
<path fill="#B62434" opacity="1.000000" stroke="none" 
	d="
M264.918640,49.374058 
	C265.148438,49.571693 265.434570,50.070042 265.836945,50.833611 
	C265.627136,50.624146 265.301025,50.149456 264.918640,49.374058 
z"/>
<path fill="#B62434" opacity="1.000000" stroke="none" 
	d="
M265.996033,51.245750 
	C266.147675,51.239628 266.375854,51.496887 266.770203,51.949722 
	C266.648407,51.933247 266.360474,51.721191 265.996033,51.245750 
z"/>
<path fill="#000000" opacity="1.000000" stroke="none" 
	d="
M411.559082,20.683990 
	C419.400085,25.215187 421.167480,29.366323 417.900116,36.305054 
	C416.487488,39.305035 414.122498,42.196861 410.186646,41.577286 
	C402.797119,40.414047 400.524017,38.109585 399.933655,33.122032 
	C399.262238,27.449524 401.366425,23.584078 406.716095,20.988625 
	C408.376312,20.248625 409.784729,20.574015 411.559082,20.683990 
z"/>
<path fill="#BC3546" opacity="1.000000" stroke="none" 
	d="
M411.654724,20.713419 
	C410.583160,20.874348 409.215240,20.916985 407.440247,20.896366 
	C408.443481,20.182220 409.879974,20.007944 411.654724,20.713419 
z"/>
<path fill="#000000" opacity="1.000000" stroke="none" 
	d="
M81.686218,31.454672 
	C83.941116,28.288582 84.819237,24.359272 89.355896,23.985550 
	C96.062630,23.433060 100.195030,25.778898 101.665329,31.345808 
	C103.003662,36.413044 100.297714,41.285984 94.293625,44.062569 
	C92.583305,44.766987 91.159103,44.428829 89.388832,44.246651 
	C85.531151,42.667038 83.546799,39.892178 81.979233,36.284897 
	C81.225990,34.624329 81.583260,33.218391 81.686218,31.454672 
z"/>
<path fill="#50507F" opacity="1.000000" stroke="none" 
	d="
M89.315033,44.165031 
	C90.385124,44.042122 91.753632,44.040604 93.529861,44.092209 
	C92.516975,44.829174 91.079994,45.010719 89.315033,44.165031 
z"/>
<path fill="#4C4C7C" opacity="1.000000" stroke="none" 
	d="
M81.718857,31.360538 
	C81.877075,32.423683 81.918152,33.782234 81.909256,35.546604 
	C81.203094,34.554455 81.005554,33.128990 81.718857,31.360538 
z"/>
<path fill="#000000" opacity="1.000000" stroke="none" 
	d="
M446.354980,30.132259 
	C446.015442,29.827694 445.981567,29.410349 445.916077,29.211498 
	C445.149628,26.615940 445.604126,24.173704 445.847260,21.391340 
	C448.258331,21.040924 450.424683,20.804358 452.504364,21.126875 
	C454.680054,21.464291 457.282135,21.964504 457.720795,24.623039 
	C458.103058,26.939604 457.218170,29.082626 454.302887,30.086849 
	C451.546082,30.831686 449.111755,30.403019 446.354980,30.132259 
z"/>
<path fill="#B92E3E" opacity="1.000000" stroke="none" 
	d="
M445.971924,21.371222 
	C446.074799,23.397032 446.019531,25.762321 445.907410,28.570129 
	C444.930511,26.583242 444.706726,24.150326 445.971924,21.371222 
z"/>
<path fill="#BA3245" opacity="1.000000" stroke="none" 
	d="
M446.353027,29.994808 
	C448.367371,29.898466 450.719299,29.969238 453.505615,30.104269 
	C451.522675,31.098024 449.105988,31.319759 446.353027,29.994808 
z"/>
<path fill="#000000" opacity="1.000000" stroke="none" 
	d="
M135.500793,23.705902 
	C141.126419,27.493496 141.237045,29.300024 136.263123,33.946125 
	C135.651764,34.238438 135.334976,34.470032 135.038620,34.446331 
	C132.984222,34.282051 130.073059,35.534306 129.064819,33.716286 
	C127.580910,31.040579 127.880295,27.417530 128.814026,24.652348 
	C129.652832,22.168312 132.904251,23.950882 135.500793,23.705902 
z"/>
<path fill="#50507F" opacity="1.000000" stroke="none" 
	d="
M135.603302,23.740742 
	C133.466080,24.879808 129.062698,21.707315 128.855087,27.809549 
	C128.686783,32.755806 130.016342,34.932762 135.521149,34.078144 
	C133.414017,34.952168 130.580276,35.994251 128.841110,33.157394 
	C127.335777,30.701960 127.464195,27.619648 128.700729,25.071127 
	C130.075012,22.238697 132.801498,22.991352 135.603302,23.740742 
z"/>
<path fill="#B62434" opacity="1.000000" stroke="none" 
	d="
M273.985687,51.009075 
	C273.973541,51.021343 273.985291,50.943493 274.003998,50.958115 
	C274.022705,50.972733 273.997833,50.996807 273.985687,51.009075 
z"/>
<path fill="#B62434" opacity="1.000000" stroke="none" 
	d="
M272.496216,48.507256 
	C272.512939,48.503216 272.479492,48.511292 272.496216,48.507256 
z"/>
</svg>